<?xml version="1.0" encoding="UTF-8" standalone="no"?>
<!-- Created with Inkscape (http://www.inkscape.org/) -->

<svg
   width="1024"
   height="1024"
   viewBox="0 0 270.93333 270.93333"
   version="1.1"
   id="svg5"
   xml:space="preserve"
   xmlns="http://www.w3.org/2000/svg"
   xmlns:svg="http://www.w3.org/2000/svg"><defs
     id="defs2" /><g
     id="layer1"><g
       id="g420"
       transform="matrix(1.4476875,0,0,1.4092598,-64.655847,-49.950704)"><path
         style="fill:#93b1de;stroke-width:0.264583"
         d="m 79.986503,222.30067 c -25.667322,0 -29.098034,-0.0468 -29.233109,-0.3988 -0.09195,-0.23962 0.245409,-0.84688 0.845174,-1.52136 0.549016,-0.6174 3.747011,-3.98171 7.106653,-7.47623 3.359642,-3.49453 10.632816,-11.05126 16.162608,-16.79275 5.529792,-5.74148 15.458745,-16.01322 22.06434,-22.82608 6.605591,-6.81287 12.142001,-12.34309 12.303121,-12.28939 0.21141,0.0705 0.31168,8.51596 0.36023,30.34193 0.0492,22.12982 -0.0127,30.34066 -0.23084,30.60348 -0.24777,0.29855 -5.2078,0.3592 -29.378177,0.3592 z m 67.893097,-0.26864 c -18.04116,0.002 -29.21301,-0.0915 -29.36875,-0.24728 -0.15601,-0.156 -0.23001,-9.76546 -0.1951,-25.33385 0.0309,-13.79539 0.0709,-25.43971 0.0889,-25.87628 l 0.0326,-0.79375 0.2505,0.79375 c 0.13778,0.43657 0.53877,2.16297 0.8911,3.83646 0.35233,1.67349 1.28572,6.19787 2.0742,10.05417 0.78849,3.8563 1.57864,7.87466 1.7559,8.92969 0.18927,1.12648 0.4523,1.91823 0.63726,1.91823 0.17323,0 0.46913,-0.38696 0.65756,-0.8599 0.18844,-0.47294 1.03615,-2.7649 1.88381,-5.09323 0.84766,-2.32833 2.34392,-6.31693 3.32504,-8.86354 0.98111,-2.54662 2.02395,-5.16599 2.31742,-5.82083 0.3752,-0.83723 0.56644,-1.05133 0.64431,-0.72131 0.0609,0.25812 -0.084,2.28219 -0.32201,4.49792 -0.23801,2.21572 -0.78307,6.80472 -1.21124,10.19777 -0.42817,3.39304 -0.7785,6.70405 -0.7785,7.3578 0,0.69735 0.10567,1.12333 0.25565,1.03063 0.14061,-0.0869 1.36997,-1.73103 2.73191,-3.65363 1.36194,-1.92261 3.29038,-4.68627 4.28543,-6.14148 0.99504,-1.4552 2.99723,-4.34247 4.44932,-6.41614 1.45208,-2.07367 2.75037,-3.77031 2.88508,-3.77031 0.13472,0 0.16244,0.26789 0.0616,0.59531 -0.10083,0.32742 -2.13292,5.50599 -4.51575,11.50793 -2.38283,6.00194 -4.33241,10.9728 -4.33241,11.04635 0,0.0736 0.12842,0.13374 0.28538,0.13374 0.15696,0 1.13922,-0.7005 2.18281,-1.55667 1.04359,-0.85616 4.81446,-4.08019 8.37972,-7.16449 3.56526,-3.08431 6.69065,-5.72175 6.94532,-5.86098 0.25791,-0.14101 0.46302,-0.14871 0.46302,-0.0174 0,0.12966 -0.95392,1.59237 -2.11983,3.25045 -1.1659,1.65809 -3.28805,4.68158 -4.71589,6.71887 -1.42784,2.0373 -3.34461,4.79569 -4.25949,6.12976 -0.91489,1.33408 -1.62047,2.55203 -1.56796,2.70657 0.0525,0.15453 1.82186,-0.65244 3.93192,-1.79327 2.11005,-1.14083 5.08661,-2.78382 6.61458,-3.65109 1.52797,-0.86727 4.95335,-2.79806 7.61197,-4.29066 2.65861,-1.4926 4.96,-2.67176 5.11418,-2.62036 0.1542,0.0514 -0.83041,1.16459 -2.18801,2.47377 -1.35759,1.30918 -4.85173,4.52072 -7.76475,7.13676 -2.91303,2.61604 -6.03842,5.39938 -6.94532,6.18518 -0.9069,0.78581 -1.6489,1.58948 -1.6489,1.78594 0,0.19646 0.10574,0.3572 0.23498,0.3572 0.12924,0 1.2901,-0.30781 2.57969,-0.68402 1.28959,-0.37621 8.23201,-2.16636 15.42761,-3.9781 7.19559,-1.81175 13.26778,-3.25349 13.49375,-3.20387 0.24251,0.0533 -0.13118,0.3703 -0.91207,0.77382 -0.72761,0.37598 -4.95433,2.31434 -9.39271,4.30747 -4.43839,1.99313 -10.15339,4.57186 -12.7,5.73051 -2.54662,1.15865 -4.85049,2.2716 -5.11973,2.47322 -0.26923,0.20163 -0.41598,0.48557 -0.32611,0.63098 0.0899,0.14541 0.7864,0.38507 1.54785,0.53258 0.76144,0.1475 3.05132,0.57204 5.08861,0.94341 2.03729,0.37137 6.98433,1.26688 10.99343,1.99001 4.00909,0.72313 7.92385,1.45088 8.69946,1.61722 0.98061,0.2103 1.29899,0.37288 1.04512,0.53367 -0.20249,0.12826 -13.33307,0.23305 -29.48249,0.2353 z M 50.779741,201.92775 c -0.163722,0 -0.377053,-0.0794 -0.474065,-0.17639 -0.09701,-0.097 -0.175982,-8.81834 -0.175485,-19.38073 5.29e-4,-11.55383 0.113501,-20.40639 0.283546,-22.22173 0.155454,-1.65956 0.564288,-4.12767 0.908521,-5.48468 0.344234,-1.35701 1.025139,-3.46166 1.513123,-4.677 0.487985,-1.21534 1.409729,-3.1229 2.048323,-4.23901 0.638593,-1.11612 1.764858,-2.7864 2.50281,-3.71173 0.737952,-0.92534 8.366419,-8.7654 16.952148,-17.42236 8.58573,-8.65696 16.311441,-16.25001 17.16825,-16.87345 0.856808,-0.62343 2.523683,-1.64568 3.704166,-2.27166 1.180484,-0.62598 3.056718,-1.44234 4.16941,-1.81412 1.112692,-0.37179 3.196282,-0.85891 4.630212,-1.0825 2.28633,-0.3565 8.4184,-0.39752 49.83526,-0.33339 l 47.22812,0.0731 v 21.16667 21.16667 l -0.60969,2.23127 c -0.33533,1.2272 -1.01716,3.11319 -1.51517,4.19107 -0.49802,1.07789 -1.43077,2.6932 -2.07279,3.58956 -0.64202,0.89637 -1.98425,2.41097 -2.98274,3.36579 -0.99849,0.95481 -2.38996,2.12756 -3.09215,2.60611 -0.70219,0.47855 -2.13895,1.26847 -3.1928,1.75538 -1.05385,0.48691 -2.80105,1.15495 -3.88266,1.48452 -1.94203,0.59175 -2.18074,0.60035 -19.1184,0.68837 -16.97796,0.0882 -17.15095,0.0838 -17.06563,-0.43531 0.0474,-0.28845 6.31831,-6.84255 13.93534,-14.56467 7.61703,-7.72212 14.04776,-14.04022 14.29051,-14.04022 0.24275,0 2.39907,1.96041 4.79182,4.35646 2.97644,2.98054 4.59388,4.40993 5.12119,4.52574 0.56223,0.12349 0.90127,0.0365 1.25322,-0.32156 0.4201,-0.42739 0.53461,-1.41436 0.88577,-7.6346 0.22181,-3.92906 0.60788,-10.62833 0.85794,-14.88726 0.31125,-5.30135 0.36888,-7.82926 0.18273,-8.01542 -0.18615,-0.18615 -2.64219,-0.18444 -7.78753,0.005 -4.13359,0.15252 -11.01094,0.39193 -15.28298,0.53203 -5.13543,0.16841 -7.89225,0.35837 -8.13594,0.56061 -0.20272,0.16824 -0.36858,0.61143 -0.36858,0.98485 0,0.52658 1.0759,1.76058 4.79388,5.49834 3.33014,3.34786 4.72854,4.92512 4.57987,5.16568 -0.11771,0.19046 -8.18039,8.26843 -17.91706,17.95103 -9.73666,9.68261 -17.89955,17.63397 -18.13976,17.66968 -0.2487,0.037 -2.7203,-1.95641 -5.74098,-4.63021 -2.91733,-2.58233 -7.54479,-6.68944 -10.28322,-9.12691 -2.73843,-2.43748 -5.1154,-4.43178 -5.28214,-4.43178 -0.16675,0 -7.20758,6.9354 -15.646279,15.41198 -8.438705,8.47659 -21.469699,21.57347 -28.957765,29.10417 -7.488069,7.53071 -13.748621,13.69219 -13.912345,13.69219 z m 0.22202,-70.83608 c -0.191532,0.12314 -0.412674,0.0178 -0.555649,-0.26458 -0.134866,-0.2664 -0.214313,-8.12979 -0.183843,-18.19622 0.04597,-15.186031 0.118578,-18.160673 0.506566,-20.751942 0.249102,-1.663671 0.793453,-4.345609 1.209669,-5.959864 0.416219,-1.614252 1.196192,-4.122597 1.733273,-5.574099 0.537083,-1.451501 1.671436,-4.067844 2.520783,-5.814094 0.84935,-1.74625 2.489576,-4.60375 3.644945,-6.35 1.155372,-1.74625 3.057591,-4.316175 4.22715,-5.710945 1.169562,-1.394769 3.295828,-3.642688 4.725033,-4.99537 1.429207,-1.352685 3.818197,-3.375234 5.308864,-4.494554 1.490671,-1.11932 3.962271,-2.780903 5.492446,-3.692406 1.530178,-0.9115 4.079529,-2.238068 5.66523,-2.947927 1.585698,-0.709858 4.233783,-1.755502 5.884635,-2.323653 1.650852,-0.56815 4.132644,-1.287679 5.515091,-1.598954 1.382448,-0.311277 3.763696,-0.76827 5.291666,-1.015545 2.54379,-0.411665 7.85541,-0.456948 62.97084,-0.536852 33.10599,-0.048 60.4606,-0.02117 60.78802,0.05962 0.44499,0.109788 0.59531,0.338658 0.59531,0.906359 0,0.417716 -0.1883,1.752116 -0.41844,2.965336 -0.23014,1.213218 -0.95809,3.851675 -1.61765,5.863233 -0.65956,2.011561 -2.00809,5.288563 -2.99672,7.282231 -0.98864,1.993667 -2.63322,4.875003 -3.65462,6.402972 -1.02141,1.527969 -2.80193,3.909219 -3.9567,5.291667 -1.15478,1.382448 -3.32266,3.686884 -4.81752,5.120966 -1.49485,1.434084 -3.88061,3.472727 -5.30167,4.53032 -1.42107,1.057592 -3.60991,2.542722 -4.8641,3.300288 -1.25419,0.757566 -3.61758,2.009188 -5.25198,2.781385 -1.6344,0.772197 -4.27229,1.840338 -5.86197,2.373646 -1.58968,0.53331 -3.85187,1.193199 -5.02708,1.466424 -1.17522,0.273222 -3.44645,0.704334 -5.04717,0.958022 -2.64958,0.419915 -6.07611,0.465447 -38.2323,0.508042 -31.65828,0.04193 -35.5963,0.09273 -37.96771,0.489707 -1.455205,0.243604 -3.717393,0.753771 -5.027081,1.133702 -1.309687,0.379934 -3.52372,1.20223 -4.920072,1.827324 -1.396352,0.625094 -3.471032,1.702491 -4.610397,2.394217 -1.139367,0.691724 -2.877182,1.932422 -3.861813,2.757102 -0.984631,0.824672 -8.494485,8.274272 -16.688563,16.554652 -8.194077,8.28038 -15.041491,15.14729 -15.216473,15.25979 z"
         id="path430" /><path
         style="fill:#5394e4;stroke-width:0.264583"
         d="m 79.978452,222.03203 c -16.837224,-0.002 -28.550707,-0.10321 -28.779077,-0.24767 -0.303654,-0.19208 0.199647,-0.84885 2.37929,-3.1048 1.520425,-1.57365 4.138832,-4.28994 5.818682,-6.03619 1.67985,-1.74625 7.752919,-8.05458 13.495711,-14.01852 5.742789,-5.96393 13.888586,-14.41737 18.101768,-18.78541 4.213181,-4.36805 9.964944,-10.29338 12.781694,-13.16742 2.81675,-2.87404 5.23343,-5.22552 5.3704,-5.22552 0.15419,0 0.24903,11.43274 0.24903,30.0209 0,29.40999 -0.0104,30.02647 -0.51177,30.29479 -0.34379,0.184 -9.831412,0.27256 -28.905728,0.26984 z m 67.901148,0 c -18.04116,0.002 -29.21301,-0.0915 -29.36875,-0.24728 -0.15601,-0.156 -0.23001,-9.76546 -0.1951,-25.33385 0.0309,-13.79539 0.0643,-25.32065 0.0742,-25.61169 0.0162,-0.47813 0.0433,-0.48565 0.28104,-0.0779 0.14471,0.24818 0.55231,1.85553 0.9058,3.57187 0.35348,1.71634 1.28781,6.27578 2.07629,10.13208 0.78849,3.8563 1.57864,7.87466 1.7559,8.92969 0.18927,1.12648 0.4523,1.91823 0.63726,1.91823 0.17323,0 0.46913,-0.38696 0.65756,-0.8599 0.18844,-0.47294 1.03615,-2.7649 1.88381,-5.09323 0.84766,-2.32833 2.34392,-6.31693 3.32504,-8.86354 0.98111,-2.54662 2.02395,-5.16599 2.31742,-5.82083 0.3752,-0.83723 0.56644,-1.05133 0.64431,-0.72131 0.0609,0.25812 -0.084,2.28219 -0.32201,4.49792 -0.23801,2.21572 -0.78307,6.80472 -1.21124,10.19777 -0.42817,3.39304 -0.7785,6.70405 -0.7785,7.3578 0,0.69735 0.10567,1.12333 0.25565,1.03063 0.14061,-0.0869 1.36997,-1.73103 2.73191,-3.65363 1.36194,-1.92261 3.29038,-4.68627 4.28543,-6.14148 0.99504,-1.4552 2.99723,-4.34247 4.44932,-6.41614 1.45208,-2.07367 2.75037,-3.77031 2.88508,-3.77031 0.13472,0 0.16244,0.26789 0.0616,0.59531 -0.10083,0.32742 -2.13292,5.50599 -4.51575,11.50793 -2.38283,6.00194 -4.33241,10.9728 -4.33241,11.04635 0,0.0736 0.12842,0.13374 0.28538,0.13374 0.15696,0 1.13922,-0.7005 2.18281,-1.55667 1.04359,-0.85616 4.81446,-4.08019 8.37972,-7.16449 3.56526,-3.08431 6.69065,-5.72175 6.94532,-5.86098 0.25791,-0.14101 0.46302,-0.14871 0.46302,-0.0174 0,0.12966 -0.95392,1.59237 -2.11983,3.25045 -1.1659,1.65809 -3.28805,4.68158 -4.71589,6.71887 -1.42784,2.0373 -3.34461,4.79569 -4.25949,6.12976 -0.91489,1.33408 -1.62047,2.55203 -1.56796,2.70657 0.0525,0.15453 1.82186,-0.65244 3.93192,-1.79327 2.11005,-1.14083 5.08661,-2.78382 6.61458,-3.65109 1.52797,-0.86727 4.95335,-2.79806 7.61197,-4.29066 2.65861,-1.4926 4.96,-2.67176 5.11418,-2.62036 0.1542,0.0514 -0.83041,1.16459 -2.18801,2.47377 -1.35759,1.30918 -4.85173,4.52072 -7.76475,7.13676 -2.91303,2.61604 -6.03842,5.39938 -6.94532,6.18518 -0.9069,0.78581 -1.6489,1.58948 -1.6489,1.78594 0,0.19646 0.10574,0.3572 0.23498,0.3572 0.12924,0 1.2901,-0.30781 2.57969,-0.68402 1.28959,-0.37621 8.23201,-2.16636 15.42761,-3.9781 7.19559,-1.81175 13.26778,-3.25349 13.49375,-3.20387 0.24251,0.0533 -0.13118,0.3703 -0.91207,0.77382 -0.72761,0.37598 -4.95433,2.31434 -9.39271,4.30747 -4.43839,1.99313 -10.15339,4.57186 -12.7,5.73051 -2.54662,1.15865 -4.85049,2.2716 -5.11973,2.47322 -0.26923,0.20163 -0.41598,0.48557 -0.32611,0.63098 0.0899,0.14541 0.7864,0.38507 1.54785,0.53258 0.76144,0.1475 3.05132,0.57204 5.08861,0.94341 2.03729,0.37137 6.98433,1.26688 10.99343,1.99001 4.00909,0.72313 7.92385,1.45088 8.69946,1.61722 0.98061,0.2103 1.29899,0.37288 1.04512,0.53367 -0.20249,0.12826 -13.33307,0.23305 -29.48249,0.2353 z M 50.901558,201.61907 c -0.133708,0.0485 -0.249002,-0.0706 -0.25621,-0.26459 -0.0072,-0.19402 -0.0062,-9.57675 0.0024,-20.85049 0.01286,-17.08845 0.08286,-20.91692 0.420981,-23.01811 0.223065,-1.38622 0.818269,-3.75373 1.322676,-5.26113 0.504407,-1.5074 1.459865,-3.79161 2.123241,-5.07603 0.663374,-1.28441 1.827054,-3.17115 2.585956,-4.19276 0.758902,-1.0216 8.377248,-8.94249 16.929659,-17.60197 8.55241,-8.65947 16.347255,-16.34565 17.321877,-17.08038 0.974622,-0.73474 2.911874,-1.92459 4.305006,-2.64412 1.393132,-0.71953 3.537056,-1.59921 4.764276,-1.95484 1.22722,-0.35564 3.3616,-0.78353 4.74308,-0.95087 1.82847,-0.22149 15.17956,-0.28288 49.07843,-0.22567 l 46.56667,0.0786 v 20.90209 20.90208 l -0.60363,2.24896 c -0.332,1.23693 -1.11669,3.32052 -1.74375,4.63021 -0.62708,1.30969 -1.86247,3.27828 -2.74533,4.37464 -0.88286,1.09637 -2.47942,2.69194 -3.54791,3.54571 -1.06849,0.85377 -3.01428,2.06588 -4.32397,2.69358 -1.30968,0.62769 -3.33375,1.40808 -4.49791,1.73418 -2.06953,0.57972 -2.48127,0.59499 -18.48977,0.68569 -9.0052,0.051 -16.55557,0.0228 -16.7786,-0.0628 -0.29721,-0.11405 0.43429,-1.0189 2.73918,-3.38828 1.72957,-1.77797 8.02108,-8.14401 13.98113,-14.14674 5.96005,-6.00274 10.96263,-10.91407 11.11686,-10.91407 0.15422,0 2.20275,1.95207 4.55228,4.33792 2.34953,2.38585 4.5326,4.42067 4.85126,4.52181 0.31866,0.10114 0.86502,0.1122 1.21412,0.0246 0.3491,-0.0876 0.77275,-0.41722 0.94145,-0.73244 0.1687,-0.31522 0.40672,-2.54623 0.52894,-4.95781 0.12222,-2.41158 0.41678,-7.48031 0.65459,-11.26385 0.23781,-3.78354 0.44971,-8.60558 0.47089,-10.71563 l 0.0385,-3.83646 h -3.43958 c -1.89177,0 -8.55927,0.15336 -14.81667,0.34079 -6.25739,0.18743 -11.76021,0.40046 -12.22847,0.47341 -0.46827,0.0729 -1.03381,0.31505 -1.25677,0.53801 -0.22296,0.22296 -0.40538,0.77841 -0.40538,1.23433 0,0.72488 0.58124,1.39707 4.6302,5.35465 2.54662,2.48914 4.63021,4.70276 4.63021,4.91915 0,0.2164 -7.96268,8.33533 -17.69486,18.04208 -9.73224,9.70675 -17.80424,17.64863 -17.93785,17.64863 -0.1336,0 -1.42803,-1.03691 -2.8765,-2.30425 -1.44847,-1.26733 -5.25295,-4.6353 -8.45441,-7.48437 -3.20146,-2.84907 -6.74618,-5.98215 -7.87715,-6.96238 -1.73459,-1.5034 -2.13597,-1.73962 -2.56541,-1.50978 -0.28001,0.14985 -13.383944,13.27928 -29.119859,29.17651 -15.735914,15.89724 -28.720148,28.94375 -28.853855,28.99226 z m -0.121624,-70.86424 c -0.08268,0 -0.108408,-8.54273 -0.05718,-18.98385 0.08937,-18.214403 0.116459,-19.102082 0.668353,-21.900684 0.316368,-1.604253 0.937392,-4.135974 1.380062,-5.62605 0.442666,-1.490075 1.280596,-3.903374 1.862063,-5.362887 0.581467,-1.45951 1.489059,-3.511696 2.016871,-4.560406 0.527812,-1.048713 1.609368,-2.978312 2.403454,-4.287999 0.794089,-1.309688 2.286656,-3.512344 3.31682,-4.894792 1.030163,-1.382448 3.549144,-4.19585 5.597736,-6.252004 2.09872,-2.106467 4.982062,-4.66567 6.604961,-5.862447 1.584137,-1.168194 4.160446,-2.856746 5.725134,-3.752339 1.564687,-0.895594 4.138107,-2.200691 5.718712,-2.900217 1.580602,-0.699527 4.131561,-1.692921 5.668793,-2.207544 1.537232,-0.514622 3.923187,-1.180115 5.302121,-1.478872 1.378932,-0.298757 3.907526,-0.726768 5.619106,-0.951135 2.72499,-0.357217 10.59493,-0.407943 63.29111,-0.407943 59.96578,0 60.17916,0.0019 60.17916,0.528193 0,0.290505 -0.28678,1.868083 -0.63729,3.50573 -0.3505,1.637644 -1.01874,4.10664 -1.48497,5.486657 -0.46623,1.380016 -1.35836,3.66091 -1.98252,5.068652 -0.62416,1.407742 -1.6427,3.433794 -2.26343,4.502338 -0.62072,1.068543 -1.81283,2.964831 -2.64913,4.213971 -0.83631,1.24914 -2.27492,3.212891 -3.19692,4.363889 -0.922,1.151001 -2.88848,3.294799 -4.36995,4.763995 -1.48147,1.469195 -3.88521,3.584676 -5.34166,4.701067 -1.45644,1.116391 -3.63761,2.644156 -4.84704,3.39503 -1.20943,0.750875 -3.74678,2.109878 -5.63855,3.020005 -1.89177,0.910127 -4.89664,2.135322 -6.67748,2.722658 -1.78085,0.587335 -4.81694,1.397931 -6.74688,1.801325 l -3.50897,0.733444 -36.90938,0.157559 c -33.12745,0.141415 -37.13982,0.203219 -39.15834,0.603184 -1.236924,0.245094 -3.082392,0.688221 -4.101038,0.984726 -1.018646,0.296506 -2.62599,0.839775 -3.571875,1.207265 -0.945886,0.36749 -2.835646,1.253032 -4.19947,1.967873 -1.363824,0.714841 -3.4271,1.981862 -4.585062,2.815598 -1.428216,1.028324 -7.118359,6.56079 -17.691191,17.20095 -8.572193,8.62678 -15.653451,15.68506 -15.736131,15.68506 z"
         id="path428" /><path
         style="fill:#fc9c2a;stroke-width:0.264583"
         d="m 147.8796,222.03203 c -18.04116,0.002 -29.21301,-0.0915 -29.36875,-0.24728 -0.15601,-0.156 -0.23001,-9.76546 -0.1951,-25.33385 0.0309,-13.79539 0.0643,-25.32065 0.0742,-25.61169 0.0162,-0.47813 0.0433,-0.48565 0.28104,-0.0779 0.14471,0.24818 0.55231,1.85553 0.9058,3.57187 0.35348,1.71634 1.28781,6.27578 2.07629,10.13208 0.78849,3.8563 1.57864,7.87466 1.7559,8.92969 0.18927,1.12648 0.4523,1.91823 0.63726,1.91823 0.17323,0 0.46913,-0.38696 0.65756,-0.8599 0.18844,-0.47294 1.03615,-2.7649 1.88381,-5.09323 0.84766,-2.32833 2.34392,-6.31693 3.32504,-8.86354 0.98111,-2.54662 2.02395,-5.16599 2.31742,-5.82083 0.3752,-0.83723 0.56644,-1.05133 0.64431,-0.72131 0.0609,0.25812 -0.084,2.28219 -0.32201,4.49792 -0.23801,2.21572 -0.78307,6.80472 -1.21124,10.19777 -0.42817,3.39304 -0.7785,6.70405 -0.7785,7.3578 0,0.69735 0.10567,1.12333 0.25565,1.03063 0.14061,-0.0869 1.36997,-1.73103 2.73191,-3.65363 1.36194,-1.92261 3.29038,-4.68627 4.28543,-6.14148 0.99504,-1.4552 2.99723,-4.34247 4.44932,-6.41614 1.45208,-2.07367 2.75037,-3.77031 2.88508,-3.77031 0.13472,0 0.16244,0.26789 0.0616,0.59531 -0.10083,0.32742 -2.13292,5.50599 -4.51575,11.50793 -2.38283,6.00194 -4.33241,10.9728 -4.33241,11.04635 0,0.0736 0.12842,0.13374 0.28538,0.13374 0.15696,0 1.13922,-0.7005 2.18281,-1.55667 1.04359,-0.85616 4.81446,-4.08019 8.37972,-7.16449 3.56526,-3.08431 6.69065,-5.72175 6.94532,-5.86098 0.25791,-0.14101 0.46302,-0.14871 0.46302,-0.0174 0,0.12966 -0.95392,1.59237 -2.11983,3.25045 -1.1659,1.65809 -3.28805,4.68158 -4.71589,6.71887 -1.42784,2.0373 -3.34461,4.79569 -4.25949,6.12976 -0.91489,1.33408 -1.62047,2.55203 -1.56796,2.70657 0.0525,0.15453 1.82186,-0.65244 3.93192,-1.79327 2.11005,-1.14083 5.08661,-2.78382 6.61458,-3.65109 1.52797,-0.86727 4.95335,-2.79806 7.61197,-4.29066 2.65861,-1.4926 4.96,-2.67176 5.11418,-2.62036 0.1542,0.0514 -0.83041,1.16459 -2.18801,2.47377 -1.35759,1.30918 -4.85173,4.52072 -7.76475,7.13676 -2.91303,2.61604 -6.03842,5.39938 -6.94532,6.18518 -0.9069,0.78581 -1.6489,1.58948 -1.6489,1.78594 0,0.19646 0.10574,0.3572 0.23498,0.3572 0.12924,0 1.2901,-0.30781 2.57969,-0.68402 1.28959,-0.37621 8.23201,-2.16636 15.42761,-3.9781 7.19559,-1.81175 13.26778,-3.25349 13.49375,-3.20387 0.24251,0.0533 -0.13118,0.3703 -0.91207,0.77382 -0.72761,0.37598 -4.95433,2.31434 -9.39271,4.30747 -4.43839,1.99313 -10.15339,4.57186 -12.7,5.73051 -2.54662,1.15865 -4.85049,2.2716 -5.11973,2.47322 -0.26923,0.20163 -0.41598,0.48557 -0.32611,0.63098 0.0899,0.14541 0.7864,0.38507 1.54785,0.53258 0.76144,0.1475 3.05132,0.57204 5.08861,0.94341 2.03729,0.37137 6.98433,1.26688 10.99343,1.99001 4.00909,0.72313 7.92385,1.45088 8.69946,1.61722 0.98061,0.2103 1.29899,0.37288 1.04512,0.53367 -0.20249,0.12826 -13.33307,0.23305 -29.48249,0.2353 z M 80.315706,221.7715 c -15.712229,0 -28.627254,-0.0964 -28.700054,-0.21417 -0.0728,-0.11779 1.369825,-1.81443 3.205835,-3.77031 1.836007,-1.95588 9.47878,-9.92327 16.983935,-17.70532 7.505158,-7.78204 18.944022,-19.61579 25.419699,-26.29721 l 11.773959,-12.14803 0.0681,29.73679 c 0.0375,16.35524 0.0114,29.88562 -0.0578,30.06752 -0.0997,0.26176 -6.08307,0.33073 -28.693654,0.33073 z M 51.010479,201.134 c -0.03092,0 -0.115483,-0.0959 -0.187923,-0.21311 -0.07244,-0.11722 -0.09565,-9.37433 -0.05157,-20.57136 0.06946,-17.6455 0.139354,-20.69317 0.524497,-22.87178 0.244396,-1.38245 0.848651,-3.72218 1.34279,-5.19941 0.494138,-1.47723 1.370949,-3.62036 1.948471,-4.7625 0.577519,-1.14215 1.680125,-2.9696 2.450235,-4.06101 0.890722,-1.26234 6.940621,-7.59834 16.626983,-17.41327 8.37473,-8.48589 16.179282,-16.19916 17.343449,-17.1406 1.164166,-0.94144 3.24776,-2.29089 4.630208,-2.99878 1.382448,-0.70788 3.340124,-1.54055 4.350391,-1.85036 1.01027,-0.30982 2.91527,-0.73822 4.23333,-0.952 2.04322,-0.3314 9.33073,-0.38885 49.43667,-0.38976 l 47.04018,-0.001 -0.0836,20.96823 c -0.0832,20.87641 -0.0862,20.97749 -0.6841,23.08489 -0.33028,1.16417 -1.00556,2.97917 -1.50062,4.03335 -0.49507,1.05417 -1.28597,2.48292 -1.75756,3.175 -0.47159,0.69207 -1.63865,2.07563 -2.59346,3.07456 -0.95482,0.99893 -2.42765,2.28805 -3.27297,2.86472 -0.84532,0.57665 -2.39313,1.4541 -3.43958,1.94986 -1.04646,0.49577 -2.85514,1.16629 -4.01931,1.49006 -2.06513,0.57434 -2.51768,0.5909 -18.58698,0.68032 -9.05867,0.0504 -16.46957,-0.004 -16.46866,-0.12145 8e-4,-0.1172 6.18183,-6.46386 13.73536,-14.10371 l 13.73369,-13.89062 4.32246,4.27114 c 2.37735,2.34913 4.58253,4.40296 4.90038,4.56406 0.31786,0.16111 0.81723,0.29292 1.10972,0.29292 0.2925,0 0.8418,-0.26789 1.22067,-0.59531 0.67734,-0.58535 0.69317,-0.67942 0.9462,-5.6224 0.14153,-2.76489 0.43213,-7.76552 0.64578,-11.1125 0.21365,-3.34698 0.46768,-8.01331 0.56451,-10.36963 l 0.17606,-4.28421 -0.71616,-0.17974 c -0.39389,-0.0989 -4.72824,-0.0384 -9.63189,0.13443 -4.90365,0.1728 -11.69116,0.41646 -15.08335,0.54145 -4.925,0.18148 -6.29766,0.31247 -6.81302,0.65015 -0.49071,0.32152 -0.6454,0.65636 -0.6454,1.39706 0,0.90813 0.30935,1.28413 4.56251,5.54549 2.50938,2.51422 4.60401,4.69581 4.65473,4.84797 0.0507,0.15217 -7.853,8.16122 -17.56384,17.79789 -9.71083,9.63667 -17.75328,17.52123 -17.87211,17.52123 -0.11883,0 -1.37566,-1.01203 -2.79295,-2.24896 -1.41729,-1.23693 -5.95447,-5.25511 -10.08261,-8.9293 -4.12815,-3.67418 -7.75224,-6.81227 -8.05354,-6.97352 -0.49881,-0.26696 -1.87605,1.04071 -15.395611,14.61784 -8.166288,8.20106 -21.214949,21.31063 -28.997027,29.13237 -7.782079,7.82175 -14.174529,14.22136 -14.205445,14.22136 z m 15.730286,-86.68754 -15.799978,15.9115 -0.0089,-17.38281 c -0.0071,-13.971863 0.06903,-17.977083 0.388136,-20.411374 0.218358,-1.665714 0.751625,-4.432681 1.185039,-6.148819 0.433417,-1.716135 1.277038,-4.437266 1.874716,-6.046957 0.597678,-1.609693 1.71686,-4.185465 2.48707,-5.72394 0.770213,-1.538476 1.998232,-3.761156 2.728934,-4.93929 0.730703,-1.178134 1.976324,-3.015006 2.76805,-4.081939 0.791726,-1.066932 2.449941,-3.070971 3.684926,-4.453419 1.234983,-1.382448 3.389987,-3.514733 4.7889,-4.73841 1.398913,-1.223679 3.592354,-2.975496 4.874313,-3.892931 1.28196,-0.917432 3.58099,-2.377453 5.108959,-3.244493 1.527969,-0.867037 3.86782,-2.054545 5.199669,-2.638906 1.331846,-0.584365 3.463983,-1.430415 4.738082,-1.880114 1.274095,-0.449702 3.220497,-1.056658 4.325331,-1.348793 1.104837,-0.292134 3.378012,-0.792377 5.051498,-1.111647 l 3.04271,-0.580493 61.33414,-0.07661 61.33414,-0.07661 -0.18775,1.261692 c -0.10326,0.693931 -0.51267,2.57138 -0.9098,4.172109 -0.39713,1.600729 -1.16708,4.101042 -1.71101,5.55625 -0.54393,1.455209 -1.64996,3.944038 -2.45786,5.530734 -0.80789,1.586696 -2.29538,4.138899 -3.30552,5.671558 -1.01014,1.532663 -2.50026,3.62774 -3.31136,4.655725 -0.81111,1.027986 -2.91189,3.300871 -4.6684,5.050849 -1.75652,1.74998 -4.35961,4.054115 -5.78466,5.120301 -1.42505,1.066184 -3.68724,2.599648 -5.02708,3.407699 -1.33985,0.808048 -3.62671,2.034929 -5.08192,2.726401 -1.45521,0.69147 -4.25318,1.796407 -6.21771,2.455413 -1.96453,0.659006 -4.78791,1.444527 -6.27418,1.745605 -1.48627,0.301074 -3.80798,0.663887 -5.15937,0.806249 -1.46437,0.154262 -16.08966,0.260691 -36.19935,0.263424 -28.42389,0.0039 -34.24932,0.06736 -36.95917,0.402844 -1.76929,0.219043 -4.623236,0.803704 -6.342099,1.299247 -1.718863,0.495541 -4.312722,1.452885 -5.764131,2.12743 -1.451406,0.674545 -3.832656,2.008227 -5.291666,2.963741 -2.392506,1.566865 -4.202729,3.298214 -18.452723,17.648784 z"
         id="path426" /><path
         style="fill:#1279ed;stroke-width:0.264583"
         d="m 80.315706,221.7715 c -15.712229,0 -28.627254,-0.0964 -28.700054,-0.21417 -0.0728,-0.11779 1.369825,-1.81443 3.205835,-3.77031 1.836007,-1.95588 9.47878,-9.92327 16.983935,-17.70532 7.505158,-7.78204 18.944022,-19.61579 25.419699,-26.29721 l 11.773959,-12.14803 0.0681,29.73679 c 0.0375,16.35524 0.0114,29.88562 -0.0578,30.06752 -0.0997,0.26176 -6.08307,0.33073 -28.693654,0.33073 z M 51.010479,201.134 c -0.03092,0 -0.115483,-0.0959 -0.187923,-0.21311 -0.07244,-0.11722 -0.09565,-9.37433 -0.05157,-20.57136 0.06946,-17.6455 0.139354,-20.69317 0.524497,-22.87178 0.244396,-1.38245 0.848651,-3.72218 1.34279,-5.19941 0.494138,-1.47723 1.370949,-3.62036 1.948471,-4.7625 0.577519,-1.14215 1.680125,-2.9696 2.450235,-4.06101 0.890722,-1.26234 6.940621,-7.59834 16.626983,-17.41327 8.37473,-8.48589 16.179282,-16.19916 17.343449,-17.1406 1.164166,-0.94144 3.24776,-2.29089 4.630208,-2.99878 1.382448,-0.70788 3.340124,-1.54055 4.350391,-1.85036 1.01027,-0.30982 2.91527,-0.73822 4.23333,-0.952 2.04322,-0.3314 9.33073,-0.38885 49.43667,-0.38976 l 47.04018,-0.001 -0.0836,20.96823 c -0.0832,20.87641 -0.0862,20.97749 -0.6841,23.08489 -0.33028,1.16417 -1.00556,2.97917 -1.50062,4.03335 -0.49507,1.05417 -1.28597,2.48292 -1.75756,3.175 -0.47159,0.69207 -1.63865,2.07563 -2.59346,3.07456 -0.95482,0.99893 -2.42765,2.28805 -3.27297,2.86472 -0.84532,0.57665 -2.39313,1.4541 -3.43958,1.94986 -1.04646,0.49577 -2.85514,1.16629 -4.01931,1.49006 -2.06513,0.57434 -2.51768,0.5909 -18.58698,0.68032 -9.05867,0.0504 -16.46957,-0.004 -16.46866,-0.12145 8e-4,-0.1172 6.18183,-6.46386 13.73536,-14.10371 l 13.73369,-13.89062 4.32246,4.27114 c 2.37735,2.34913 4.58253,4.40296 4.90038,4.56406 0.31786,0.16111 0.81723,0.29292 1.10972,0.29292 0.2925,0 0.8418,-0.26789 1.22067,-0.59531 0.67734,-0.58535 0.69317,-0.67942 0.9462,-5.6224 0.14153,-2.76489 0.43213,-7.76552 0.64578,-11.1125 0.21365,-3.34698 0.46768,-8.01331 0.56451,-10.36963 l 0.17606,-4.28421 -0.71616,-0.17974 c -0.39389,-0.0989 -4.72824,-0.0384 -9.63189,0.13443 -4.90365,0.1728 -11.69116,0.41646 -15.08335,0.54145 -4.925,0.18148 -6.29766,0.31247 -6.81302,0.65015 -0.49071,0.32152 -0.6454,0.65636 -0.6454,1.39706 0,0.90813 0.30935,1.28413 4.56251,5.54549 2.50938,2.51422 4.60401,4.69581 4.65473,4.84797 0.0507,0.15217 -7.853,8.16122 -17.56384,17.79789 -9.71083,9.63667 -17.75328,17.52123 -17.87211,17.52123 -0.11883,0 -1.37566,-1.01203 -2.79295,-2.24896 -1.41729,-1.23693 -5.95447,-5.25511 -10.08261,-8.9293 -4.12815,-3.67418 -7.75224,-6.81227 -8.05354,-6.97352 -0.49881,-0.26696 -1.87605,1.04071 -15.395611,14.61784 -8.166288,8.20106 -21.214949,21.31063 -28.997027,29.13237 -7.782079,7.82175 -14.174529,14.22136 -14.205445,14.22136 z m 15.730286,-86.68754 -15.799978,15.9115 -0.0089,-17.38281 c -0.0071,-13.971863 0.06903,-17.977083 0.388136,-20.411374 0.218358,-1.665714 0.751625,-4.432681 1.185039,-6.148819 0.433417,-1.716135 1.277038,-4.437266 1.874716,-6.046957 0.597678,-1.609693 1.71686,-4.185465 2.48707,-5.72394 0.770213,-1.538476 1.998232,-3.761156 2.728934,-4.93929 0.730703,-1.178134 1.976324,-3.015006 2.76805,-4.081939 0.791726,-1.066932 2.449941,-3.070971 3.684926,-4.453419 1.234983,-1.382448 3.389987,-3.514733 4.7889,-4.73841 1.398913,-1.223679 3.592354,-2.975496 4.874313,-3.892931 1.28196,-0.917432 3.58099,-2.377453 5.108959,-3.244493 1.527969,-0.867037 3.86782,-2.054545 5.199669,-2.638906 1.331846,-0.584365 3.463983,-1.430415 4.738082,-1.880114 1.274095,-0.449702 3.220497,-1.056658 4.325331,-1.348793 1.104837,-0.292134 3.378012,-0.792377 5.051498,-1.111647 l 3.04271,-0.580493 61.33414,-0.07661 61.33414,-0.07661 -0.18775,1.261692 c -0.10326,0.693931 -0.51267,2.57138 -0.9098,4.172109 -0.39713,1.600729 -1.16708,4.101042 -1.71101,5.55625 -0.54393,1.455209 -1.64996,3.944038 -2.45786,5.530734 -0.80789,1.586696 -2.29538,4.138899 -3.30552,5.671558 -1.01014,1.532663 -2.50026,3.62774 -3.31136,4.655725 -0.81111,1.027986 -2.91189,3.300871 -4.6684,5.050849 -1.75652,1.74998 -4.35961,4.054115 -5.78466,5.120301 -1.42505,1.066184 -3.68724,2.599648 -5.02708,3.407699 -1.33985,0.808048 -3.62671,2.034929 -5.08192,2.726401 -1.45521,0.69147 -4.25318,1.796407 -6.21771,2.455413 -1.96453,0.659006 -4.78791,1.444527 -6.27418,1.745605 -1.48627,0.301074 -3.80798,0.663887 -5.15937,0.806249 -1.46437,0.154262 -16.08966,0.260691 -36.19935,0.263424 -28.42389,0.0039 -34.24932,0.06736 -36.95917,0.402844 -1.76929,0.219043 -4.623236,0.803704 -6.342099,1.299247 -1.718863,0.495541 -4.312722,1.452885 -5.764131,2.12743 -1.451406,0.674545 -3.832656,2.008227 -5.291666,2.963741 -2.392506,1.566865 -4.202729,3.298214 -18.452723,17.648784 z"
         id="path424" /><path
         style="fill:#014bab;stroke-width:0.264583"
         d="m 80.344188,221.7715 c -15.696563,0 -28.615847,-0.0766 -28.709518,-0.17031 -0.09367,-0.0937 0.790348,-1.22258 1.964484,-2.50869 1.174136,-1.28612 4.228844,-4.51346 6.78824,-7.17188 2.559397,-2.65842 6.389574,-6.61943 8.511509,-8.80225 2.121934,-2.18281 6.714257,-6.93872 10.205162,-10.56869 3.490902,-3.62997 11.645379,-12.06892 18.121056,-18.75323 l 11.773959,-12.15328 0.0681,29.73344 c 0.0375,16.35338 0.0114,29.88226 -0.0578,30.06416 -0.0997,0.26176 -6.07737,0.33073 -28.665172,0.33073 z M 50.994863,201.134 c -0.03951,0 -0.0774,-0.14883 -0.08421,-0.33073 -0.0068,-0.1819 -0.0036,-9.43901 0.0071,-20.57135 0.01614,-16.72515 0.08912,-20.67708 0.420254,-22.75353 0.220403,-1.3821 0.81343,-3.74624 1.317837,-5.25364 0.504407,-1.5074 1.450369,-3.76987 2.102138,-5.02772 0.651767,-1.25784 1.871231,-3.1972 2.709916,-4.30969 0.838686,-1.11248 8.550764,-9.09864 17.137952,-17.74703 8.587187,-8.64839 16.385781,-16.294 17.330208,-16.99025 0.944428,-0.69625 2.729172,-1.7728 3.966099,-2.39233 1.236928,-0.61954 3.320521,-1.43451 4.630203,-1.81105 1.30969,-0.37654 3.3126,-0.80906 4.45092,-0.96115 1.37326,-0.18348 17.8247,-0.27653 48.89226,-0.27653 h 46.8226 l -0.0836,20.96823 c -0.0832,20.87641 -0.0862,20.97749 -0.6841,23.08489 -0.33028,1.16417 -1.00556,2.97917 -1.50062,4.03335 -0.49507,1.05417 -1.28597,2.48292 -1.75756,3.175 -0.47159,0.69207 -1.63865,2.07563 -2.59346,3.07456 -0.95482,0.99893 -2.42765,2.28805 -3.27297,2.86472 -0.84532,0.57665 -2.39313,1.45052 -3.43958,1.94192 -1.04646,0.49139 -2.85514,1.16156 -4.01931,1.48925 -2.07394,0.58378 -2.44914,0.59767 -18.58698,0.68826 -9.05867,0.0508 -16.46957,-0.003 -16.46866,-0.12064 8e-4,-0.1172 6.18185,-6.46386 13.7354,-14.10371 l 13.73374,-13.89062 4.47684,4.45104 c 3.97326,3.95036 4.59341,4.46651 5.51304,4.58853 0.86119,0.11426 1.13893,0.0276 1.64443,-0.5131 0.58052,-0.62094 0.62576,-0.97475 0.9927,-7.76353 0.21145,-3.91212 0.56224,-9.97044 0.77952,-13.46294 0.21728,-3.4925 0.39564,-7.21694 0.39636,-8.27654 0.001,-1.51155 -0.0886,-1.96104 -0.41619,-2.08674 -0.22963,-0.0881 -4.60518,-0.0167 -9.72344,0.15863 -5.11826,0.17537 -12.02204,0.42098 -15.34173,0.5458 -4.8017,0.18054 -6.16767,0.31334 -6.68073,0.64951 -0.49023,0.32122 -0.64493,0.65625 -0.64493,1.39676 0,0.90813 0.30935,1.28413 4.56251,5.54549 2.50938,2.51422 4.60275,4.69202 4.65193,4.83956 0.0492,0.14755 -7.85215,8.1566 -17.55852,17.79789 -9.70637,9.6413 -17.74974,17.52964 -17.87417,17.52964 -0.12442,0 -1.44794,-1.07157 -2.94115,-2.38125 -1.49322,-1.30969 -6.0285,-5.32803 -10.0784,-8.92964 -4.04991,-3.60162 -7.6097,-6.68017 -7.91065,-6.84123 -0.49796,-0.2665 -1.88269,1.04835 -15.394966,14.61818 -8.166288,8.20106 -21.214949,21.31063 -28.997027,29.13237 -7.782079,7.82175 -14.181556,14.22136 -14.221061,14.22136 z"
         id="path422" /></g></g></svg>
