<svg width="1200" height="400" viewBox="0 0 1200 400" fill="none" xmlns="http://www.w3.org/2000/svg">
<path d="M459.24 254V191.44H448.2V173.36H459.24V166.16C459.24 159.44 460.36 154.107 462.6 150.16C464.84 146.213 468.04 143.333 472.2 141.52C476.467 139.707 481.427 138.8 487.08 138.8H495.88V157.2H490.28C486.973 157.2 484.573 157.893 483.08 159.28C481.587 160.56 480.84 162.8 480.84 166V173.36H531.56V254H509.96V191.44H480.84V254H459.24ZM520.84 162.48C517 162.48 513.8 161.307 511.24 158.96C508.787 156.613 507.56 153.68 507.56 150.16C507.56 146.64 508.787 143.76 511.24 141.52C513.8 139.28 517 138.16 520.84 138.16C524.787 138.16 527.987 139.28 530.44 141.52C533 143.76 534.28 146.64 534.28 150.16C534.28 153.68 533 156.613 530.44 158.96C527.987 161.307 524.787 162.48 520.84 162.48ZM551.716 254V173.36H570.756L572.356 186.48C574.81 182 578.276 178.373 582.756 175.6C587.343 172.827 592.783 171.44 599.076 171.44C605.796 171.44 611.45 172.827 616.036 175.6C620.623 178.373 624.09 182.427 626.436 187.76C628.89 193.093 630.116 199.653 630.116 207.44V254H608.676V209.52C608.676 203.12 607.29 198.213 604.516 194.8C601.85 191.387 597.69 189.68 592.036 189.68C588.41 189.68 585.156 190.533 582.276 192.24C579.503 193.947 577.316 196.4 575.716 199.6C574.116 202.693 573.316 206.48 573.316 210.96V254H551.716ZM676.166 255.92C669.446 255.92 663.9 254.853 659.526 252.72C655.153 250.48 651.9 247.547 649.766 243.92C647.74 240.187 646.726 236.08 646.726 231.6C646.726 226.693 647.953 222.373 650.406 218.64C652.966 214.907 656.753 211.973 661.766 209.84C666.886 207.707 673.286 206.64 680.966 206.64H700.966C700.966 202.693 700.433 199.44 699.366 196.88C698.3 194.213 696.646 192.24 694.406 190.96C692.166 189.68 689.18 189.04 685.446 189.04C681.393 189.04 677.926 189.947 675.046 191.76C672.273 193.467 670.566 196.133 669.926 199.76H648.966C649.5 194 651.366 189.04 654.566 184.88C657.873 180.613 662.193 177.307 667.526 174.96C672.966 172.613 678.993 171.44 685.606 171.44C693.18 171.44 699.74 172.72 705.286 175.28C710.833 177.84 715.1 181.52 718.086 186.32C721.073 191.12 722.566 197.04 722.566 204.08V254H704.326L701.926 241.68C700.753 243.813 699.366 245.733 697.766 247.44C696.166 249.147 694.3 250.64 692.166 251.92C690.033 253.2 687.633 254.16 684.966 254.8C682.3 255.547 679.366 255.92 676.166 255.92ZM681.286 239.28C684.06 239.28 686.513 238.8 688.646 237.84C690.886 236.773 692.806 235.387 694.406 233.68C696.006 231.867 697.233 229.84 698.086 227.6C699.046 225.253 699.686 222.747 700.006 220.08V219.92H683.526C680.22 219.92 677.5 220.347 675.366 221.2C673.34 221.947 671.846 223.067 670.886 224.56C669.926 226.053 669.446 227.76 669.446 229.68C669.446 231.813 669.926 233.573 670.886 234.96C671.846 236.347 673.233 237.413 675.046 238.16C676.86 238.907 678.94 239.28 681.286 239.28ZM741.216 254V173.36H760.256L761.856 186.48C764.31 182 767.776 178.373 772.256 175.6C776.843 172.827 782.283 171.44 788.576 171.44C795.296 171.44 800.95 172.827 805.536 175.6C810.123 178.373 813.59 182.427 815.936 187.76C818.39 193.093 819.616 199.653 819.616 207.44V254H798.176V209.52C798.176 203.12 796.79 198.213 794.016 194.8C791.35 191.387 787.19 189.68 781.536 189.68C777.91 189.68 774.656 190.533 771.776 192.24C769.003 193.947 766.816 196.4 765.216 199.6C763.616 202.693 762.816 206.48 762.816 210.96V254H741.216ZM833.186 254V236.72L873.826 191.28H833.666V173.36H898.626V190.8L857.666 236.08H899.426V254H833.186ZM942.604 255.92C935.884 255.92 930.337 254.853 925.964 252.72C921.59 250.48 918.337 247.547 916.204 243.92C914.177 240.187 913.164 236.08 913.164 231.6C913.164 226.693 914.39 222.373 916.844 218.64C919.404 214.907 923.19 211.973 928.204 209.84C933.324 207.707 939.724 206.64 947.404 206.64H967.404C967.404 202.693 966.87 199.44 965.804 196.88C964.737 194.213 963.084 192.24 960.844 190.96C958.604 189.68 955.617 189.04 951.884 189.04C947.83 189.04 944.364 189.947 941.484 191.76C938.71 193.467 937.004 196.133 936.364 199.76H915.404C915.937 194 917.804 189.04 921.004 184.88C924.31 180.613 928.63 177.307 933.964 174.96C939.404 172.613 945.43 171.44 952.044 171.44C959.617 171.44 966.177 172.72 971.724 175.28C977.27 177.84 981.537 181.52 984.524 186.32C987.51 191.12 989.004 197.04 989.004 204.08V254H970.764L968.364 241.68C967.19 243.813 965.804 245.733 964.204 247.44C962.604 249.147 960.737 250.64 958.604 251.92C956.47 253.2 954.07 254.16 951.404 254.8C948.737 255.547 945.804 255.92 942.604 255.92ZM947.724 239.28C950.497 239.28 952.95 238.8 955.084 237.84C957.324 236.773 959.244 235.387 960.844 233.68C962.444 231.867 963.67 229.84 964.524 227.6C965.484 225.253 966.124 222.747 966.444 220.08V219.92H949.964C946.657 219.92 943.937 220.347 941.804 221.2C939.777 221.947 938.284 223.067 937.324 224.56C936.364 226.053 935.884 227.76 935.884 229.68C935.884 231.813 936.364 233.573 937.324 234.96C938.284 236.347 939.67 237.413 941.484 238.16C943.297 238.907 945.377 239.28 947.724 239.28ZM1007.65 254V173.36H1026.85L1028.93 188.24C1030.85 184.72 1033.25 181.733 1036.13 179.28C1039.12 176.827 1042.48 174.907 1046.21 173.52C1050.05 172.133 1054.27 171.44 1058.85 171.44V194.32H1051.49C1048.29 194.32 1045.31 194.693 1042.53 195.44C1039.87 196.187 1037.52 197.413 1035.49 199.12C1033.47 200.72 1031.92 202.96 1030.85 205.84C1029.79 208.72 1029.25 212.347 1029.25 216.72V254H1007.65Z" fill="#378ADD"/>
<path d="M153.083 364C104.869 364 98.4244 363.915 98.1706 363.277C97.9979 362.842 98.6316 361.741 99.7582 360.519C100.79 359.399 106.797 353.299 113.108 346.964C119.418 340.628 133.08 326.927 143.468 316.517C153.855 306.107 172.506 287.484 184.914 275.132C197.322 262.78 207.722 252.753 208.024 252.85C208.422 252.978 208.61 268.29 208.701 307.862C208.793 347.985 208.677 362.872 208.267 363.349C207.802 363.89 198.485 364 153.083 364ZM280.615 363.513C246.726 363.517 225.74 363.347 225.448 363.065C225.155 362.782 225.016 345.359 225.081 317.132C225.139 292.12 225.215 271.008 225.248 270.217L225.31 268.778L225.78 270.217C226.039 271.008 226.792 274.139 227.454 277.173C228.116 280.207 229.869 288.41 231.35 295.402C232.831 302.393 234.316 309.679 234.649 311.592C235.004 313.634 235.498 315.07 235.846 315.07C236.171 315.07 236.727 314.368 237.081 313.511C237.435 312.653 239.027 308.498 240.619 304.276C242.212 300.055 245.022 292.823 246.865 288.206C248.708 283.589 250.667 278.84 251.218 277.652C251.923 276.134 252.282 275.746 252.429 276.345C252.543 276.813 252.271 280.482 251.824 284.5C251.377 288.517 250.353 296.837 249.548 302.989C248.744 309.141 248.086 315.144 248.086 316.329C248.086 317.594 248.285 318.366 248.566 318.198C248.83 318.04 251.14 315.059 253.698 311.574C256.256 308.088 259.879 303.077 261.748 300.439C263.617 297.8 267.378 292.565 270.106 288.806C272.833 285.046 275.272 281.97 275.525 281.97C275.778 281.97 275.83 282.455 275.641 283.049C275.451 283.643 271.634 293.032 267.158 303.914C262.682 314.796 259.02 323.808 259.02 323.942C259.02 324.075 259.261 324.184 259.556 324.184C259.851 324.184 261.696 322.914 263.656 321.362C265.617 319.81 272.7 313.964 279.397 308.372C286.094 302.78 291.965 297.998 292.443 297.746C292.928 297.49 293.313 297.476 293.313 297.714C293.313 297.949 291.521 300.601 289.331 303.607C287.141 306.614 283.155 312.095 280.473 315.789C277.791 319.483 274.19 324.484 272.472 326.903C270.753 329.322 269.428 331.53 269.526 331.81C269.625 332.09 272.949 330.627 276.912 328.559C280.876 326.49 286.467 323.512 289.337 321.939C292.207 320.367 298.642 316.866 303.636 314.16C308.63 311.454 312.953 309.316 313.242 309.409C313.532 309.502 311.682 311.52 309.132 313.894C306.582 316.268 300.019 322.09 294.547 326.834C289.075 331.577 283.204 336.623 281.5 338.048C279.797 339.472 278.403 340.93 278.403 341.286C278.403 341.642 278.602 341.933 278.844 341.933C279.087 341.933 281.268 341.375 283.69 340.693C286.113 340.011 299.153 336.765 312.67 333.481C326.186 330.196 337.592 327.582 338.017 327.672C338.472 327.768 337.77 328.343 336.304 329.075C334.937 329.756 326.997 333.271 318.66 336.884C310.323 340.498 299.588 345.174 294.804 347.274C290.02 349.375 285.693 351.393 285.187 351.758C284.681 352.124 284.406 352.639 284.574 352.902C284.743 353.166 286.052 353.601 287.482 353.868C288.912 354.136 293.214 354.905 297.041 355.579C300.867 356.252 310.16 357.876 317.691 359.187C325.222 360.498 332.575 361.817 334.032 362.119C335.874 362.5 336.472 362.795 335.995 363.086C335.615 363.319 310.95 363.509 280.615 363.513ZM98.2201 327.062C97.9126 327.062 97.5119 326.918 97.3296 326.743C97.1474 326.567 96.9991 310.754 97 291.604C97.001 270.656 97.2132 254.606 97.5326 251.314C97.8246 248.305 98.5926 243.831 99.2392 241.37C99.8858 238.91 101.165 235.094 102.081 232.89C102.998 230.687 104.73 227.228 105.929 225.205C107.129 223.181 109.244 220.153 110.63 218.475C112.017 216.797 126.346 202.583 142.474 186.887C158.601 171.191 173.114 157.425 174.723 156.294C176.332 155.164 179.464 153.311 181.681 152.176C183.898 151.041 187.423 149.561 189.513 148.886C191.603 148.212 195.517 147.329 198.21 146.924C202.505 146.277 214.024 146.203 291.822 146.319L380.537 146.452V184.829V223.205L379.391 227.251C378.761 229.476 377.481 232.895 376.545 234.85C375.61 236.804 373.858 239.732 372.652 241.358C371.446 242.983 368.924 245.729 367.049 247.46C365.173 249.191 362.559 251.318 361.24 252.185C359.921 253.053 357.222 254.485 355.243 255.368C353.263 256.251 349.981 257.462 347.95 258.059C344.302 259.132 343.853 259.148 312.037 259.307C280.145 259.467 279.82 259.459 279.981 258.518C280.07 257.995 291.849 246.112 306.157 232.111C320.465 218.111 332.545 206.655 333.001 206.655C333.457 206.655 337.507 210.21 342.002 214.554C347.593 219.958 350.631 222.549 351.622 222.759C352.678 222.983 353.315 222.826 353.976 222.176C354.765 221.402 354.98 219.612 355.64 208.334C356.056 201.211 356.781 189.064 357.251 181.343C357.836 171.731 357.944 167.148 357.594 166.81C357.245 166.473 352.631 166.476 342.966 166.819C335.201 167.096 322.283 167.53 314.258 167.784C304.612 168.089 299.433 168.434 298.975 168.8C298.595 169.105 298.283 169.909 298.283 170.586C298.283 171.541 300.304 173.778 307.288 180.555C313.543 186.625 316.17 189.484 315.891 189.92C315.67 190.266 300.525 204.912 282.235 222.467C263.946 240.022 248.612 254.439 248.161 254.503C247.694 254.571 243.051 250.956 237.377 246.109C231.897 241.427 223.205 233.98 218.061 229.561C212.917 225.141 208.452 221.526 208.139 221.526C207.825 221.526 194.6 234.1 178.748 249.469C162.897 264.837 138.419 288.583 124.353 302.237C110.288 315.89 98.5277 327.062 98.2201 327.062ZM98.6372 198.631C98.2774 198.855 97.862 198.664 97.5934 198.152C97.3401 197.669 97.1909 183.412 97.2481 165.161C97.3345 137.627 97.4708 132.234 98.1996 127.536C98.6676 124.519 99.6901 119.657 100.472 116.73C101.254 113.803 102.719 109.256 103.728 106.624C104.737 103.992 106.867 99.2486 108.463 96.0825C110.058 92.9164 113.139 87.7356 115.31 84.5695C117.48 81.4034 121.053 76.744 123.25 74.2151C125.447 71.6863 129.441 67.6107 132.126 65.1582C134.81 62.7056 139.298 59.0386 142.098 57.0092C144.898 54.9798 149.541 51.9672 152.415 50.3146C155.289 48.662 160.078 46.2568 163.057 44.9698C166.035 43.6828 171.01 41.7869 174.111 40.7568C177.212 39.7267 181.873 38.4222 184.47 37.8578C187.067 37.2934 191.54 36.4649 194.41 36.0166C199.189 35.2702 209.166 35.1881 312.696 35.0432C374.883 34.9562 426.267 35.0048 426.882 35.1513C427.718 35.3504 428 35.7653 428 36.7946C428 37.5519 427.646 39.9713 427.214 42.171C426.782 44.3706 425.414 49.1543 424.175 52.8014C422.936 56.4486 420.403 62.39 418.546 66.0047C416.689 69.6193 413.6 74.8434 411.681 77.6137C409.763 80.384 406.418 84.7014 404.249 87.2079C402.08 89.7144 398.008 93.8925 395.2 96.4926C392.392 99.0927 387.91 102.789 385.241 104.706C382.571 106.624 378.46 109.317 376.104 110.69C373.748 112.064 369.309 114.333 366.239 115.733C363.168 117.133 358.213 119.07 355.227 120.037C352.241 121.003 347.992 122.2 345.784 122.695C343.577 123.191 339.31 123.972 336.304 124.432C331.327 125.194 324.89 125.276 264.487 125.353C205.019 125.429 197.622 125.521 193.168 126.241C190.434 126.683 186.185 127.608 183.725 128.297C181.265 128.986 177.106 130.476 174.483 131.61C171.86 132.743 167.963 134.696 165.822 135.951C163.682 137.205 160.418 139.454 158.568 140.949C156.719 142.445 142.612 155.951 127.22 170.964C111.828 185.977 98.9659 198.427 98.6372 198.631Z" fill="#93B1DE"/>
<path d="M153.068 363.513C121.44 363.509 99.4373 363.326 99.0083 363.064C98.4379 362.716 99.3833 361.525 103.478 357.435C106.334 354.582 111.252 349.657 114.408 346.491C117.563 343.325 128.971 331.887 139.758 321.074C150.546 310.261 165.847 294.934 173.761 287.015C181.675 279.095 192.479 268.352 197.77 263.141C203.062 257.93 207.601 253.667 207.858 253.667C208.148 253.667 208.326 274.395 208.326 308.097C208.326 361.419 208.307 362.537 207.365 363.024C206.719 363.357 188.897 363.518 153.068 363.513ZM280.615 363.513C246.726 363.517 225.74 363.347 225.448 363.065C225.155 362.782 225.016 345.359 225.081 317.132C225.139 292.12 225.202 271.224 225.221 270.697C225.251 269.83 225.302 269.816 225.749 270.555C226.02 271.005 226.786 273.92 227.45 277.031C228.114 280.143 229.869 288.41 231.35 295.402C232.831 302.393 234.316 309.679 234.649 311.592C235.004 313.634 235.498 315.07 235.846 315.07C236.171 315.07 236.727 314.368 237.081 313.511C237.435 312.653 239.027 308.498 240.619 304.276C242.212 300.055 245.022 292.823 246.865 288.206C248.708 283.589 250.667 278.84 251.218 277.652C251.923 276.134 252.282 275.746 252.429 276.345C252.543 276.813 252.271 280.482 251.824 284.5C251.377 288.517 250.353 296.837 249.548 302.989C248.744 309.141 248.086 315.144 248.086 316.329C248.086 317.594 248.285 318.366 248.566 318.198C248.83 318.04 251.14 315.059 253.698 311.574C256.256 308.088 259.879 303.077 261.748 300.439C263.617 297.8 267.378 292.565 270.106 288.806C272.833 285.046 275.272 281.97 275.525 281.97C275.778 281.97 275.83 282.455 275.641 283.049C275.451 283.643 271.634 293.032 267.158 303.914C262.682 314.796 259.02 323.808 259.02 323.942C259.02 324.075 259.261 324.184 259.556 324.184C259.851 324.184 261.696 322.914 263.656 321.362C265.617 319.809 272.7 313.964 279.397 308.372C286.094 302.78 291.965 297.998 292.443 297.746C292.928 297.49 293.313 297.476 293.313 297.714C293.313 297.949 291.521 300.601 289.331 303.607C287.141 306.614 283.155 312.095 280.473 315.789C277.791 319.483 274.19 324.484 272.472 326.903C270.753 329.322 269.428 331.53 269.526 331.81C269.625 332.09 272.949 330.627 276.912 328.559C280.876 326.49 286.467 323.512 289.337 321.939C292.207 320.367 298.642 316.866 303.636 314.16C308.63 311.454 312.953 309.316 313.242 309.409C313.532 309.502 311.682 311.52 309.132 313.894C306.582 316.268 300.019 322.09 294.547 326.834C289.075 331.577 283.204 336.623 281.5 338.048C279.797 339.472 278.403 340.93 278.403 341.286C278.403 341.642 278.602 341.933 278.844 341.933C279.087 341.933 281.268 341.375 283.69 340.693C286.113 340.011 299.153 336.765 312.67 333.481C326.186 330.196 337.592 327.582 338.017 327.672C338.472 327.768 337.77 328.343 336.304 329.075C334.937 329.756 326.997 333.271 318.66 336.884C310.323 340.498 299.588 345.174 294.804 347.274C290.02 349.375 285.693 351.393 285.187 351.758C284.681 352.124 284.406 352.639 284.574 352.902C284.743 353.166 286.052 353.601 287.482 353.868C288.912 354.136 293.214 354.905 297.041 355.579C300.867 356.252 310.16 357.876 317.691 359.187C325.222 360.498 332.575 361.817 334.032 362.119C335.874 362.5 336.472 362.795 335.995 363.086C335.615 363.319 310.95 363.509 280.615 363.513ZM98.4489 326.503C98.1977 326.591 97.9812 326.375 97.9676 326.023C97.9541 325.671 97.956 308.66 97.9721 288.22C97.9963 257.237 98.1278 250.296 98.7629 246.486C99.1819 243.973 100.3 239.68 101.247 236.947C102.195 234.214 103.99 230.073 105.236 227.744C106.482 225.415 108.668 221.994 110.093 220.142C111.519 218.29 125.829 203.929 141.894 188.229C157.959 172.528 172.601 158.593 174.432 157.261C176.263 155.928 179.902 153.771 182.519 152.467C185.136 151.162 189.163 149.567 191.468 148.922C193.773 148.278 197.783 147.502 200.378 147.198C203.812 146.797 228.891 146.685 292.568 146.789L380.04 146.932V184.829V222.726L378.906 226.803C378.282 229.046 376.808 232.824 375.63 235.198C374.452 237.573 372.132 241.142 370.473 243.13C368.815 245.117 365.816 248.01 363.809 249.558C361.802 251.106 358.147 253.304 355.687 254.442C353.227 255.58 349.425 256.995 347.238 257.586C343.35 258.637 342.577 258.665 312.506 258.829C295.591 258.922 281.408 258.871 280.989 258.716C280.43 258.509 281.805 256.868 286.134 252.572C289.383 249.349 301.201 237.807 312.397 226.923C323.592 216.04 332.989 207.135 333.279 207.135C333.568 207.135 337.416 210.674 341.83 215C346.243 219.326 350.344 223.015 350.943 223.199C351.541 223.382 352.567 223.402 353.223 223.243C353.879 223.084 354.675 222.487 354.992 221.915C355.309 221.344 355.756 217.299 355.985 212.926C356.215 208.554 356.768 199.364 357.215 192.504C357.662 185.644 358.06 176.902 358.099 173.076L358.172 166.12H351.711C348.157 166.12 335.633 166.398 323.879 166.738C312.125 167.078 301.788 167.464 300.908 167.596C300.029 167.729 298.967 168.168 298.548 168.572C298.129 168.976 297.786 169.983 297.786 170.81C297.786 172.124 298.878 173.343 306.484 180.518C311.267 185.031 315.181 189.045 315.181 189.437C315.181 189.829 300.224 204.549 281.943 222.148C263.662 239.748 248.499 254.147 248.248 254.147C247.997 254.147 245.565 252.267 242.845 249.969C240.124 247.671 232.977 241.565 226.964 236.399C220.95 231.234 214.291 225.553 212.167 223.776C208.909 221.05 208.155 220.622 207.348 221.039C206.822 221.31 182.207 245.115 152.649 273.938C123.09 302.761 98.7001 326.415 98.4489 326.503ZM98.2204 198.021C98.0651 198.021 98.0168 182.532 98.113 163.602C98.2809 130.578 98.3318 128.968 99.3685 123.894C99.9627 120.985 101.129 116.395 101.961 113.694C102.792 110.992 104.366 106.616 105.459 103.97C106.551 101.324 108.256 97.6033 109.247 95.7019C110.239 93.8005 112.27 90.302 113.762 87.9274C115.253 85.5529 118.057 81.5593 119.992 79.0528C121.927 76.5464 126.659 71.4455 130.507 67.7175C134.449 63.8983 139.866 59.2583 142.914 57.0885C145.89 54.9704 150.729 51.909 153.668 50.2852C156.607 48.6614 161.441 46.2952 164.41 45.0269C167.379 43.7586 172.171 41.9575 175.059 41.0244C177.946 40.0914 182.428 38.8848 185.018 38.3431C187.609 37.8015 192.358 37.0255 195.574 36.6187C200.692 35.971 215.475 35.879 314.461 35.879C427.102 35.879 427.503 35.8825 427.503 36.8367C427.503 37.3634 426.964 40.2237 426.306 43.1928C425.647 46.162 424.392 50.6385 423.516 53.1405C422.641 55.6426 420.965 59.778 419.792 62.3304C418.62 64.8827 416.707 68.5561 415.541 70.4934C414.375 72.4308 412.136 75.8689 410.565 78.1337C408.994 80.3985 406.291 83.9589 404.559 86.0457C402.827 88.1326 399.134 92.0194 396.351 94.6832C393.568 97.347 389.053 101.182 386.317 103.207C383.581 105.231 379.484 108.001 377.212 109.362C374.94 110.723 370.174 113.187 366.621 114.838C363.067 116.488 357.423 118.709 354.077 119.774C350.732 120.839 345.029 122.308 341.404 123.04L334.813 124.37L265.481 124.655C203.254 124.912 195.717 125.024 191.925 125.749C189.602 126.193 186.135 126.997 184.222 127.534C182.308 128.072 179.289 129.057 177.512 129.723C175.735 130.389 172.186 131.995 169.624 133.291C167.062 134.587 163.186 136.884 161.011 138.396C158.328 140.26 147.64 150.291 127.78 169.583C111.677 185.223 98.3757 198.021 98.2204 198.021Z" fill="#5394E4"/>
<path d="M280.615 363.513C246.726 363.517 225.74 363.347 225.448 363.065C225.155 362.782 225.016 345.359 225.081 317.132C225.139 292.12 225.202 271.224 225.221 270.697C225.251 269.83 225.302 269.816 225.749 270.555C226.02 271.005 226.786 273.92 227.45 277.031C228.114 280.143 229.869 288.41 231.35 295.402C232.831 302.393 234.316 309.679 234.649 311.592C235.004 313.634 235.498 315.07 235.846 315.07C236.171 315.07 236.727 314.368 237.081 313.511C237.435 312.653 239.027 308.498 240.619 304.276C242.212 300.055 245.022 292.823 246.865 288.206C248.708 283.589 250.667 278.84 251.218 277.652C251.923 276.134 252.282 275.746 252.429 276.345C252.543 276.813 252.271 280.482 251.824 284.5C251.377 288.517 250.353 296.837 249.549 302.989C248.744 309.141 248.086 315.144 248.086 316.329C248.086 317.594 248.285 318.366 248.566 318.198C248.831 318.04 251.14 315.059 253.698 311.573C256.256 308.088 259.879 303.077 261.748 300.439C263.617 297.8 267.378 292.565 270.106 288.806C272.833 285.046 275.272 281.97 275.525 281.97C275.778 281.97 275.83 282.455 275.641 283.049C275.451 283.643 271.634 293.032 267.158 303.914C262.682 314.796 259.02 323.808 259.02 323.942C259.02 324.075 259.261 324.184 259.556 324.184C259.851 324.184 261.696 322.914 263.656 321.362C265.617 319.81 272.7 313.964 279.397 308.372C286.094 302.78 291.965 297.998 292.443 297.746C292.928 297.49 293.313 297.476 293.313 297.714C293.313 297.949 291.521 300.601 289.331 303.607C287.141 306.614 283.155 312.095 280.473 315.789C277.791 319.483 274.19 324.484 272.472 326.903C270.753 329.322 269.428 331.53 269.526 331.81C269.625 332.09 272.949 330.627 276.912 328.559C280.876 326.49 286.467 323.512 289.337 321.939C292.207 320.367 298.642 316.866 303.636 314.16C308.63 311.454 312.953 309.316 313.242 309.409C313.532 309.502 311.682 311.52 309.132 313.894C306.582 316.268 300.019 322.09 294.547 326.834C289.075 331.577 283.204 336.623 281.5 338.048C279.797 339.472 278.403 340.93 278.403 341.286C278.403 341.642 278.602 341.933 278.845 341.933C279.087 341.933 281.268 341.375 283.69 340.693C286.113 340.011 299.153 336.765 312.67 333.481C326.186 330.196 337.592 327.582 338.017 327.672C338.472 327.768 337.77 328.343 336.304 329.075C334.937 329.756 326.997 333.271 318.66 336.885C310.323 340.498 299.588 345.174 294.804 347.274C290.02 349.375 285.693 351.393 285.187 351.759C284.681 352.124 284.406 352.639 284.575 352.903C284.743 353.166 286.052 353.601 287.482 353.868C288.912 354.136 293.214 354.905 297.041 355.579C300.868 356.252 310.16 357.875 317.691 359.187C325.222 360.498 332.575 361.817 334.032 362.119C335.874 362.5 336.472 362.795 335.995 363.086C335.615 363.319 310.95 363.509 280.615 363.513ZM153.701 363.041C124.187 363.041 99.9271 362.866 99.7903 362.652C99.6536 362.439 102.363 359.363 105.812 355.816C109.261 352.27 123.617 337.825 137.715 323.715C151.813 309.606 173.3 288.15 185.464 276.037L207.581 254.011L207.709 307.926C207.779 337.58 207.73 362.111 207.6 362.441C207.413 362.915 196.173 363.041 153.701 363.041ZM98.6536 325.623C98.5955 325.623 98.4366 325.449 98.3006 325.237C98.1645 325.024 98.1209 308.241 98.2037 287.94C98.3342 255.947 98.4655 250.421 99.1889 246.471C99.648 243.965 100.783 239.723 101.711 237.044C102.639 234.366 104.286 230.48 105.371 228.41C106.456 226.339 108.527 223.026 109.974 221.047C111.647 218.758 123.011 207.27 141.206 189.475C156.938 174.09 171.598 160.105 173.785 158.398C175.972 156.691 179.885 154.244 182.482 152.961C185.079 151.678 188.756 150.168 190.654 149.606C192.552 149.044 196.13 148.268 198.606 147.88C202.444 147.279 216.133 147.175 291.469 147.173L379.83 147.172L379.673 185.189C379.517 223.039 379.512 223.222 378.388 227.043C377.768 229.154 376.5 232.445 375.57 234.356C374.64 236.267 373.154 238.858 372.268 240.112C371.382 241.367 369.19 243.876 367.397 245.687C365.603 247.498 362.836 249.835 361.249 250.881C359.661 251.926 356.753 253.517 354.788 254.416C352.822 255.315 349.424 256.531 347.238 257.118C343.358 258.159 342.508 258.189 312.323 258.351C295.307 258.442 281.387 258.344 281.388 258.131C281.39 257.918 293 246.411 307.189 232.56L332.987 207.375L341.106 215.119C345.572 219.378 349.714 223.102 350.311 223.394C350.908 223.686 351.846 223.925 352.396 223.925C352.945 223.925 353.977 223.439 354.689 222.846C355.961 221.784 355.991 221.614 356.466 212.652C356.732 207.639 357.278 198.572 357.679 192.504C358.08 186.436 358.558 177.975 358.739 173.703L359.07 165.936L357.725 165.61C356.985 165.43 348.843 165.54 339.632 165.853C330.421 166.167 317.671 166.609 311.299 166.835C302.048 167.164 299.47 167.402 298.501 168.014C297.58 168.597 297.289 169.204 297.289 170.547C297.289 172.193 297.87 172.875 305.859 180.601C310.573 185.16 314.508 189.115 314.603 189.391C314.698 189.667 299.852 204.188 281.611 221.66C263.37 239.132 248.262 253.427 248.039 253.427C247.816 253.427 245.455 251.592 242.793 249.35C240.131 247.107 231.608 239.822 223.854 233.16C216.099 226.499 209.292 220.809 208.726 220.517C207.789 220.033 205.202 222.404 179.806 247.02C164.466 261.889 139.955 285.658 125.337 299.839C110.719 314.02 98.7116 325.623 98.6536 325.623ZM128.202 168.452L98.5227 197.301L98.5059 165.785C98.4926 140.453 98.6356 133.191 99.235 128.777C99.6452 125.757 100.647 120.741 101.461 117.629C102.275 114.518 103.86 109.584 104.983 106.666C106.105 103.747 108.208 99.0771 109.654 96.2877C111.101 93.4984 113.408 89.4685 114.78 87.3324C116.153 85.1964 118.493 81.866 119.98 79.9316C121.467 77.9972 124.582 74.3637 126.902 71.8572C129.222 69.3507 133.27 65.4847 135.897 63.2661C138.525 61.0475 142.645 57.8713 145.053 56.208C147.461 54.5446 151.78 51.8975 154.65 50.3255C157.52 48.7535 161.916 46.6004 164.417 45.5409C166.919 44.4814 170.924 42.9475 173.318 42.1321C175.711 41.3168 179.367 40.2163 181.442 39.6867C183.518 39.157 187.788 38.25 190.931 37.6712L196.647 36.6187L311.858 36.4798L427.07 36.3409L426.717 38.6285C426.523 39.8866 425.754 43.2906 425.008 46.1928C424.262 49.095 422.816 53.6283 421.794 56.2667C420.772 58.9051 418.695 63.4175 417.177 66.2943C415.66 69.1711 412.865 73.7984 410.968 76.5773C409.07 79.3561 406.271 83.1546 404.748 85.0184C403.224 86.8822 399.278 91.0031 395.979 94.176C392.679 97.3488 387.789 101.526 385.113 103.459C382.436 105.393 378.186 108.173 375.67 109.638C373.153 111.103 368.857 113.327 366.124 114.581C363.39 115.835 358.134 117.838 354.444 119.033C350.754 120.228 345.45 121.652 342.658 122.198C339.867 122.744 335.505 123.401 332.967 123.66C330.216 123.939 302.744 124.132 264.969 124.137C211.577 124.144 200.635 124.259 195.544 124.868C192.221 125.265 186.86 126.325 183.631 127.223C180.402 128.122 175.53 129.857 172.804 131.08C170.077 132.303 165.604 134.721 162.864 136.454C158.37 139.295 154.969 142.434 128.202 168.452Z" fill="#FC9C2A"/>
<path d="M153.701 363.041C124.187 363.041 99.9271 362.866 99.7903 362.652C99.6536 362.439 102.363 359.363 105.812 355.816C109.261 352.27 123.617 337.825 137.715 323.715C151.813 309.606 173.3 288.15 185.464 276.037L207.581 254.011L207.709 307.926C207.779 337.58 207.73 362.111 207.6 362.441C207.413 362.915 196.173 363.041 153.701 363.041ZM98.6536 325.623C98.5955 325.623 98.4366 325.449 98.3006 325.237C98.1645 325.024 98.1209 308.241 98.2037 287.94C98.3342 255.947 98.4655 250.421 99.1889 246.471C99.648 243.965 100.783 239.723 101.711 237.044C102.639 234.366 104.286 230.48 105.371 228.41C106.456 226.339 108.527 223.026 109.974 221.047C111.647 218.758 123.011 207.27 141.206 189.475C156.938 174.09 171.598 160.105 173.785 158.398C175.972 156.691 179.885 154.244 182.482 152.961C185.079 151.678 188.756 150.168 190.654 149.606C192.552 149.044 196.13 148.268 198.606 147.88C202.444 147.279 216.133 147.175 291.469 147.173L379.83 147.172L379.673 185.189C379.517 223.039 379.512 223.222 378.388 227.043C377.768 229.154 376.5 232.445 375.57 234.356C374.64 236.267 373.154 238.858 372.268 240.112C371.382 241.367 369.19 243.876 367.397 245.687C365.603 247.498 362.836 249.835 361.249 250.881C359.661 251.926 356.753 253.517 354.788 254.416C352.822 255.315 349.424 256.531 347.238 257.118C343.358 258.159 342.508 258.189 312.323 258.351C295.307 258.442 281.387 258.344 281.388 258.131C281.39 257.918 293 246.411 307.189 232.56L332.987 207.375L341.106 215.119C345.572 219.378 349.714 223.102 350.311 223.394C350.908 223.686 351.846 223.925 352.396 223.925C352.945 223.925 353.977 223.439 354.689 222.846C355.961 221.784 355.991 221.614 356.466 212.652C356.732 207.639 357.278 198.572 357.679 192.504C358.08 186.436 358.558 177.975 358.739 173.703L359.07 165.936L357.725 165.61C356.985 165.43 348.843 165.54 339.632 165.853C330.421 166.167 317.671 166.609 311.299 166.835C302.048 167.164 299.47 167.402 298.501 168.014C297.58 168.597 297.289 169.204 297.289 170.547C297.289 172.193 297.87 172.875 305.859 180.601C310.573 185.16 314.508 189.115 314.603 189.391C314.698 189.667 299.852 204.188 281.611 221.66C263.37 239.132 248.262 253.427 248.039 253.427C247.816 253.427 245.455 251.592 242.793 249.35C240.131 247.107 231.608 239.822 223.854 233.16C216.099 226.499 209.292 220.809 208.726 220.517C207.789 220.033 205.202 222.404 179.806 247.02C164.466 261.889 139.955 285.658 125.337 299.839C110.719 314.02 98.7116 325.623 98.6536 325.623ZM128.202 168.452L98.5227 197.301L98.5059 165.785C98.4926 140.453 98.6356 133.191 99.235 128.777C99.6452 125.757 100.647 120.741 101.461 117.629C102.275 114.518 103.86 109.584 104.983 106.666C106.105 103.747 108.208 99.0771 109.654 96.2877C111.101 93.4984 113.408 89.4685 114.78 87.3324C116.153 85.1964 118.493 81.866 119.98 79.9316C121.467 77.9972 124.582 74.3637 126.902 71.8572C129.222 69.3507 133.27 65.4847 135.897 63.2661C138.525 61.0475 142.645 57.8713 145.053 56.208C147.461 54.5446 151.78 51.8975 154.65 50.3255C157.52 48.7535 161.916 46.6004 164.417 45.5409C166.919 44.4814 170.924 42.9475 173.318 42.1321C175.711 41.3168 179.367 40.2163 181.442 39.6867C183.518 39.157 187.788 38.25 190.931 37.6712L196.647 36.6187L311.858 36.4798L427.07 36.3409L426.717 38.6285C426.523 39.8866 425.754 43.2906 425.008 46.1928C424.262 49.095 422.816 53.6283 421.794 56.2667C420.772 58.9051 418.695 63.4175 417.177 66.2943C415.66 69.1711 412.865 73.7984 410.968 76.5773C409.07 79.3561 406.271 83.1546 404.748 85.0184C403.224 86.8822 399.278 91.0031 395.979 94.176C392.679 97.3488 387.789 101.526 385.113 103.459C382.436 105.393 378.186 108.173 375.67 109.638C373.153 111.103 368.857 113.327 366.124 114.581C363.39 115.835 358.134 117.838 354.444 119.033C350.754 120.228 345.45 121.652 342.658 122.198C339.867 122.744 335.505 123.401 332.967 123.66C330.216 123.939 302.744 124.132 264.969 124.137C211.577 124.144 200.635 124.259 195.544 124.868C192.221 125.265 186.86 126.325 183.631 127.223C180.402 128.122 175.53 129.857 172.804 131.08C170.077 132.303 165.604 134.721 162.864 136.454C158.37 139.295 154.969 142.434 128.202 168.452Z" fill="#1279ED"/>
<path d="M153.755 363.041C124.27 363.041 100.002 362.902 99.8261 362.732C99.6501 362.562 101.311 360.515 103.516 358.183C105.722 355.852 111.46 350 116.267 345.18C121.075 340.36 128.27 333.179 132.256 329.221C136.242 325.263 144.868 316.641 151.425 310.059C157.983 303.478 173.3 288.177 185.464 276.058L207.581 254.023L207.709 307.932C207.779 337.582 207.73 362.111 207.6 362.441C207.413 362.916 196.184 363.041 153.755 363.041ZM98.6242 325.623C98.55 325.623 98.4789 325.353 98.4661 325.024C98.4533 324.694 98.4593 307.91 98.4794 287.726C98.5097 257.402 98.6468 250.237 99.2688 246.472C99.6828 243.967 100.797 239.68 101.744 236.947C102.692 234.214 104.469 230.112 105.693 227.832C106.917 225.551 109.208 222.035 110.783 220.018C112.359 218.001 126.845 203.521 142.976 187.841C159.106 172.161 173.755 158.299 175.529 157.037C177.303 155.774 180.656 153.822 182.979 152.699C185.303 151.576 189.216 150.098 191.677 149.416C194.137 148.733 197.899 147.949 200.037 147.673C202.617 147.34 233.52 147.172 291.878 147.172H379.83L379.673 185.188C379.517 223.039 379.511 223.222 378.388 227.043C377.768 229.154 376.499 232.445 375.57 234.356C374.64 236.267 373.154 238.858 372.268 240.112C371.382 241.367 369.19 243.876 367.396 245.687C365.603 247.498 362.836 249.835 361.248 250.881C359.661 251.926 356.753 253.511 354.787 254.402C352.822 255.292 349.424 256.508 347.237 257.102C343.342 258.16 342.637 258.185 312.323 258.349C295.307 258.442 281.386 258.344 281.388 258.131C281.39 257.918 293 246.411 307.189 232.56L332.987 207.375L341.396 215.445C348.86 222.607 350.025 223.543 351.752 223.764C353.37 223.972 353.891 223.814 354.841 222.834C355.931 221.708 356.016 221.067 356.706 208.758C357.103 201.665 357.762 190.681 358.17 184.349C358.578 178.017 358.913 171.264 358.914 169.343C358.916 166.602 358.748 165.787 358.133 165.56C357.701 165.4 349.482 165.529 339.868 165.847C330.254 166.165 317.285 166.61 311.05 166.837C302.03 167.164 299.464 167.405 298.5 168.014C297.58 168.597 297.289 169.204 297.289 170.547C297.289 172.193 297.87 172.875 305.859 180.601C310.573 185.16 314.505 189.108 314.598 189.376C314.69 189.643 299.848 204.164 281.615 221.645C263.383 239.125 248.274 253.427 248.04 253.427C247.806 253.427 245.32 251.484 242.515 249.11C239.71 246.735 231.191 239.45 223.584 232.92C215.976 226.39 209.29 220.808 208.724 220.516C207.789 220.033 205.188 222.417 179.806 247.02C164.466 261.889 139.955 285.658 125.337 299.839C110.719 314.02 98.6985 325.623 98.6242 325.623Z" fill="#014BAB"/>
</svg>
